<svg xmlns="http://www.w3.org/2000/svg" width="1200" height="675" viewBox="0 0 1200 675">
  <defs>
    <linearGradient id="bg" x1="0" y1="0" x2="1" y2="1">
      <stop offset="0" stop-color="#16233b"/><stop offset="1" stop-color="#22375c"/>
    </linearGradient>
    <pattern id="dots" width="26" height="26" patternUnits="userSpaceOnUse">
      <circle cx="1.5" cy="1.5" r="1.3" fill="#ffffff" opacity="0.05"/>
    </pattern>
  </defs>
  <rect width="1200" height="675" fill="url(#bg)"/>
  <rect width="1200" height="675" fill="url(#dots)"/>
  <line x1="930" y1="150" x2="1050" y2="230" stroke="#e6b34d" stroke-width="2" opacity="0.28"/><line x1="1050" y1="230" x2="940" y2="330" stroke="#e6b34d" stroke-width="2" opacity="0.28"/><line x1="940" y1="330" x2="1060" y2="430" stroke="#e6b34d" stroke-width="2" opacity="0.28"/><line x1="1060" y1="430" x2="950" y2="520" stroke="#e6b34d" stroke-width="2" opacity="0.28"/><circle cx="930" cy="150" r="9" fill="#e6b34d" opacity="0.55"/><circle cx="1050" cy="230" r="9" fill="#e6b34d" opacity="0.55"/><circle cx="940" cy="330" r="9" fill="#e6b34d" opacity="0.55"/><circle cx="1060" cy="430" r="9" fill="#e6b34d" opacity="0.55"/><circle cx="950" cy="520" r="9" fill="#e6b34d" opacity="0.55"/>
  <text x="70" y="88" font-size="25" fill="#8aa0c0" letter-spacing="2" font-family="Noto Sans CJK SC, Noto Sans, sans-serif">从 DevOps 到 MLOps 实战</text>
  <g>
    <rect x="960" y="62" width="170" height="40" rx="20" fill="#ffffff" opacity="0.08"/>
    <text x="1045" y="89" font-size="22" fill="#cdd9ea" text-anchor="middle" font-family="Noto Sans CJK SC, Noto Sans, sans-serif">数据与训练</text>
  </g>
  <text x="70" y="255" font-size="150" font-weight="800" fill="#e6b34d" font-family="Noto Sans CJK SC, Noto Sans, sans-serif">05</text>
  <text x="70" y="352" font-size="52" font-weight="700" fill="#ffffff" font-family="Noto Sans CJK SC, Noto Sans, sans-serif">用 DVC、Git 和 S3</text><text x="70" y="422" font-size="52" font-weight="700" fill="#ffffff" font-family="Noto Sans CJK SC, Noto Sans, sans-serif">管理数据版本</text>
  <rect x="72" y="490" width="88" height="6" rx="3" fill="#e6b34d"/>
  <text x="70" y="616" font-size="25" fill="#9fb2cf" font-family="Noto Sans CJK SC, Noto Sans, sans-serif">核心产出 · Git + DVC + S3 数据追溯</text>
</svg>